{
  "accessors": [
    {
      "bufferView": 2,
      "componentType": 5126,
      "count": 3836,
      "max": [
        12.544577598571777,
        3.671783924102783,
        -9.745203018188477
      ],
      "min": [
        8.45662784576416,
        1.3714760541915894,
        -9.7880220413208
      ],
      "type": "VEC3"
    },
    {
      "bufferView": 2,
      "byteOffset": 46032,
      "componentType": 5126,
      "count": 3836,
      "max": [
        0.9999796152114868,
        0.9998956322669983,
        1.0
      ],
      "min": [
        -0.9999794960021973,
        -0.9997808933258057,
        -1.0
      ],
      "type": "VEC3"
    },
    {
      "bufferView": 3,
      "componentType": 5126,
      "count": 3836,
      "max": [
        1.0,
        0.8628286719322205,
        0.9997257590293884,
        1.0
      ],
      "min": [
        -1.0,
        -0.8982501029968262,
        -0.9999997019767761,
        1.0
      ],
      "type": "VEC4"
    },
    {
      "bufferView": 1,
      "componentType": 5126,
      "count": 3836,
      "max": [
        0.8433970212936401,
        0.99891597032547
      ],
      "min": [
        0.0010839999886229634,
        0.0010839999886229634
      ],
      "type": "VEC2"
    },
    {
      "bufferView": 0,
      "componentType": 5125,
      "count": 21072,
      "type": "SCALAR"
    },
    {
      "bufferView": 2,
      "byteOffset": 92064,
      "componentType": 5126,
      "count": 1832,
      "max": [
        0.7938770055770874,
        3.809931993484497,
        9.189305305480957
      ],
      "min": [
        -0.5078849792480469,
        2.220879077911377,
        9.072747230529785
      ],
      "type": "VEC3"
    },
    {
      "bufferView": 2,
      "byteOffset": 114048,
      "componentType": 5126,
      "count": 1832,
      "max": [
        0.9999293684959412,
        0.9999998807907104,
        0.9999909996986389
      ],
      "min": [
        -0.9999796152114868,
        -1.0,
        -0.9999909996986389
      ],
      "type": "VEC3"
    },
    {
      "bufferView": 3,
      "byteOffset": 61376,
      "componentType": 5126,
      "count": 1832,
      "max": [
        0.9999998807907104,
        0.9971639513969421,
        0.9999973177909851,
        1.0
      ],
      "min": [
        -0.9999862313270569,
        -0.999855637550354,
        -0.9999479055404663,
        1.0
      ],
      "type": "VEC4"
    },
    {
      "bufferView": 1,
      "byteOffset": 30688,
      "componentType": 5126,
      "count": 1832,
      "max": [
        0.9988319873809814,
        0.08154500275850296
      ],
      "min": [
        0.0010839999886229634,
        0.0010839999886229634
      ],
      "type": "VEC2"
    },
    {
      "bufferView": 0,
      "byteOffset": 84288,
      "componentType": 5125,
      "count": 9408,
      "type": "SCALAR"
    }
  ],
  "asset": {
    "extras": {
      "author": "NoXiou5 (https://sketchfab.com/NoXiou5)",
      "license": "SKETCHFAB Standard (https://sketchfab.com/licenses)",
      "source": "https://sketchfab.com/3d-models/butterfly-8314fbce26804d438d3513c249acf60d",
      "title": "Butterfly"
    },
    "generator": "Sketchfab-15.61.0",
    "version": "2.0"
  },
  "bufferViews": [
    {
      "buffer": 0,
      "byteLength": 121920,
      "name": "floatBufferViews",
      "target": 34963
    },
    {
      "buffer": 0,
      "byteLength": 45344,
      "byteOffset": 121920,
      "byteStride": 8,
      "name": "floatBufferViews",
      "target": 34962
    },
    {
      "buffer": 0,
      "byteLength": 136032,
      "byteOffset": 167264,
      "byteStride": 12,
      "name": "floatBufferViews",
      "target": 34962
    },
    {
      "buffer": 0,
      "byteLength": 90688,
      "byteOffset": 303296,
      "byteStride": 16,
      "name": "floatBufferViews",
      "target": 34962
    }
  ],
  "buffers": [
    {
      "byteLength": 393984,
      "uri": "scene.bin"
    }
  ],
  "images": [
    {
      "uri": "textures/MAT_Corpo_baseColor.png"
    },
    {
      "uri": "textures/MAT_Corpo_metallicRoughness.png"
    },
    {
      "uri": "textures/MAT_Corpo_emissive.jpeg"
    },
    {
      "uri": "textures/MAT_Corpo_normal.png"
    },
    {
      "uri": "textures/MAT_Ali_baseColor.png"
    },
    {
      "uri": "textures/MAT_Ali_metallicRoughness.png"
    },
    {
      "uri": "textures/MAT_Ali_normal.png"
    }
  ],
  "materials": [
    {
      "alphaMode": "BLEND",
      "doubleSided": true,
      "emissiveFactor": [
        1.0,
        1.0,
        1.0
      ],
      "emissiveTexture": {
        "index": 2
      },
      "name": "MAT_Corpo",
      "normalTexture": {
        "index": 3
      },
      "pbrMetallicRoughness": {
        "baseColorTexture": {
          "index": 0
        },
        "metallicRoughnessTexture": {
          "index": 1
        }
      }
    },
    {
      "alphaMode": "BLEND",
      "doubleSided": true,
      "name": "MAT_Ali",
      "normalTexture": {
        "index": 6
      },
      "pbrMetallicRoughness": {
        "baseColorTexture": {
          "index": 4
        },
        "metallicFactor": 0.0,
        "metallicRoughnessTexture": {
          "index": 5
        }
      }
    }
  ],
  "meshes": [
    {
      "name": "defaultMaterial",
      "primitives": [
        {
          "attributes": {
            "NORMAL": 1,
            "POSITION": 0,
            "TANGENT": 2,
            "TEXCOORD_0": 3
          },
          "indices": 4,
          "material": 1,
          "mode": 4
        }
      ]
    },
    {
      "name": "defaultMaterial",
      "primitives": [
        {
          "attributes": {
            "NORMAL": 6,
            "POSITION": 5,
            "TANGENT": 7,
            "TEXCOORD_0": 8
          },
          "indices": 9,
          "material": 0,
          "mode": 4
        }
      ]
    }
  ],
  "nodes": [
    {
      "children": [
        1
      ],
      "matrix": [
        1.0,
        0.0,
        0.0,
        0.0,
        0.0,
        2.220446049250313e-16,
        -1.0,
        0.0,
        0.0,
        1.0,
        2.220446049250313e-16,
        0.0,
        0.0,
        0.0,
        0.0,
        1.0
      ],
      "name": "Sketchfab_model"
    },
    {
      "children": [
        2,
        4
      ],
      "matrix": [
        1.0,
        0.0,
        0.0,
        0.0,
        0.0,
        -4.371139006309477e-08,
        0.999999999999999,
        0.0,
        0.0,
        -0.999999999999999,
        -4.371139006309477e-08,
        0.0,
        0.0,
        0.0,
        0.0,
        1.0
      ],
      "name": "Collada visual scene group"
    },
    {
      "children": [
        3
      ],
      "name": "ala"
    },
    {
      "mesh": 0,
      "name": "defaultMaterial"
    },
    {
      "children": [
        5
      ],
      "matrix": [
        1.0,
        0.0,
        0.0,
        0.0,
        0.0,
        1.0,
        0.0,
        0.0,
        0.0,
        0.0,
        1.0,
        0.0,
        10.428377,
        0.0,
        -18.894583,
        1.0
      ],
      "name": "farfalla"
    },
    {
      "children": [
        6
      ],
      "name": "farfalla"
    },
    {
      "mesh": 1,
      "name": "defaultMaterial"
    }
  ],
  "samplers": [
    {
      "magFilter": 9729,
      "minFilter": 9987,
      "wrapS": 10497,
      "wrapT": 10497
    }
  ],
  "scene": 0,
  "scenes": [
    {
      "name": "Sketchfab_Scene",
      "nodes": [
        0
      ]
    }
  ],
  "textures": [
    {
      "sampler": 0,
      "source": 0
    },
    {
      "sampler": 0,
      "source": 1
    },
    {
      "sampler": 0,
      "source": 2
    },
    {
      "sampler": 0,
      "source": 3
    },
    {
      "sampler": 0,
      "source": 4
    },
    {
      "sampler": 0,
      "source": 5
    },
    {
      "sampler": 0,
      "source": 6
    }
  ]
}
